<?xml version="1.0" encoding="utf-8"?>
<!-- Generator: Adobe Illustrator 23.0.3, SVG Export Plug-In . SVG Version: 6.00 Build 0)  -->
<svg version="1.1" id="Layer_1" xmlns="http://www.w3.org/2000/svg" xmlns:xlink="http://www.w3.org/1999/xlink" x="0px" y="0px"
	 viewBox="0 0 150.2 40" style="enable-background:new 0 0 150.2 40;" xml:space="preserve">
<title>5F3A064E-27E1-46BC-B188-15EBF1F16461</title>
<g>
	<path d="M18.1,36.1c0,1.5,1.3,2,4.4,1.7l0.1,0.6c-1,0.7-3.6,1.6-5.5,1.6c-2,0-3.1-1.1-3.2-3.9L13.6,36c-2.4,2.4-5.1,4-8,4
		C2.2,40,0,38,0,34.8c0-4.8,5.7-7.3,13.6-8.4v-4c0-3.5-2.3-5.4-5.4-5.4c-1.2,0-2.5,0.3-3.9,0.8c1.2,1,1.6,2.1,1.6,3.1
		c0,1.3-1,2.5-2.5,2.5c-1.6,0-2.5-1.2-2.5-2.6c0-3.3,5.5-6.1,10.5-6.1c4.6,0,6.7,2.5,6.7,7.2V36.1z M11.1,12.2
		C8.8,9.6,5.8,6.8,4.9,5.4C4.1,4.3,4.2,3,5.2,2.4c1-0.6,2.2-0.1,2.9,1c0.9,1.4,2.2,5.2,3.7,8.4L11.1,12.2z M13.6,27.9
		c-6.8,0-9,2.4-9,5.3c0,2.3,1.5,3.6,3.8,3.6c1.4,0,3.2-0.5,5.2-1.6V27.9z"/>
	<path d="M47.6,38.5v0.7H35.9v-0.7l3.7-1V4.9l-3.9-2.3V2.1L43.9,0l0.2,0.1v37.4L47.6,38.5z"/>
	<path d="M62,40c-7.5,0-11.5-5.4-11.5-12.7c0-6.8,4.5-12.7,12.3-12.7c7.6,0,11.5,5.3,11.5,12.5C74.2,33.9,69.8,40,62,40z M62.2,15.8
		c-3.6,0-6.6,3.8-6.6,11.7c0,7.7,3.2,11.4,6.9,11.4c3.9,0,6.6-3.8,6.6-11.7C69.1,19.4,66.2,15.8,62.2,15.8z"/>
	<path d="M104,37.6v0.5l-7.4,1.8l-0.2-0.1l0.1-4.2l-0.2-0.1c-3.2,3-6.2,4.4-9,4.4c-4.8,0-6.5-3.6-6.5-7.3V18.8L77.4,17v-0.5l7.7-1.9
		l0.2,0.2v15.6c0,4.1,1.4,6,4.9,6c2.2,0,3.8-0.5,5.9-1.7V18.8L92.6,17v-0.5l7.7-1.9l0.2,0.2v21.5L104,37.6z"/>
	<path d="M111.5,24.9c0,7,2.4,11.8,8.3,11.8c2.6,0,4.8-0.6,7.8-2.1l0.3,0.6c-3.3,3.1-6.2,4.8-9.7,4.8c-6.8,0-11.6-5-11.6-12.3
		c0-7.5,5.1-13.1,11.7-13.1s9.8,4.4,9.8,10.3H111.5z M123.1,23.4c-0.4-4.5-1.8-7.6-5.1-7.6c-3.4,0-6.1,3.2-6.4,8L123.1,23.4z"/>
	<path d="M147.5,20.6c-1.4,0-2.6-1.1-2.9-2.8c-2,0.2-4,1.7-4.7,3.4v16.3l3.6,1v0.7h-11.6v-0.7l3.5-1V19.2L132,17v-0.5l7.4-1.9
		l0.2,0.2l-0.1,5.2l0.2,0.2c1.7-3.3,4.5-5.4,6.9-5.4c2.4,0,3.5,1.5,3.5,3.1C150.2,19.4,149.1,20.6,147.5,20.6z"/>
</g>
</svg>
